<svg id="Layer_1" data-name="Layer 1" xmlns="http://www.w3.org/2000/svg" viewBox="0 0 306.2 155.26"><defs><style>.cls-1,.cls-2,.cls-3{fill:#29abe2;}.cls-2{stroke:#29abe2;stroke-miterlimit:10;stroke-width:2px;}.cls-3{font-size:41.91px;font-family:Poppins-Regular, Poppins;}</style></defs><title>Logo 2</title><path class="cls-1" d="M551,330c-6.79,19.39-4.61,40.86,1.24,60.75,0,0,0,0,0,0,1.6,5.45,3.47,10.78,5.51,15.92Z" transform="translate(-530.65 -306.74)"/><path class="cls-1" d="M588.64,462l-3.57,0h-.14c-33-.46-37.93-7-37.93-7-38.58-35.61,3.08-123.09,4-125v0l11.74,48.91,3.07,12.79A31.32,31.32,0,0,0,557,413.5v5a31.64,31.64,0,0,0,22.49,30.18C584.82,457,588.64,462,588.64,462Z" transform="translate(-530.65 -306.74)"/><path class="cls-1" d="M551,393l5-9-5-54-4,15S539,380,551,393Z" transform="translate(-530.65 -306.74)"/><line class="cls-2" x1="58.35" y1="93.26" x2="58.35" y2="127.26"/><path class="cls-1" d="M833.68,455.66A19.73,19.73,0,0,1,819.19,462H586.31l-1.24,0h-.14A39.44,39.44,0,0,1,547,422.69V410.31a38.89,38.89,0,0,1,5.23-19.52h0a39.81,39.81,0,0,1,3.64-5.27A39.45,39.45,0,0,1,586.31,371H819.19c7.74,0,12.55-2.51,15.81,4l-246.5,7A31.5,31.5,0,0,0,557,413.5v5a31.64,31.64,0,0,0,22.49,30.18,31.22,31.22,0,0,0,9,1.32H831.13A3.4,3.4,0,0,1,833.68,455.66Z" transform="translate(-530.65 -306.74)"/><path class="cls-1" d="M832.77,379.66a10.19,10.19,0,0,0,3.72-11c-1.78-7.33-27.13-53.23-27.13-53.23s-9.09-9.2-25.57-7.47-208.6-1.26-208.6-1.26-22,7.19-23.93,23.64l4.51,53.79Z" transform="translate(-530.65 -306.74)"/><text class="cls-3" transform="translate(70.82 122.47) scale(1.24 1)">Edu-Hub</text></svg>